#!OML:ASF X:\für Bonn\!DataBase\2005_08_11_Bastian_Final\c3d\Bastian.ASF
:FULLY-SPECIFIED
:DEGREES
232
root 20.4699 16.3927 -7.12227 11.2143 118.946 -699.662
lowerback 7.17655 1.43581 2.2036
upperback 5.60926 2.29104 0.324523
thorax 1.84301 1.32211 -1.01873
lowerneck -11.1892 -1.35644 -4.54153
upperneck 3.90438 -1.38589 3.56057
head 3.34322 -0.604423 1.90985
rclavicle -6.50026e-014 4.13472e-014
rhumerus -43.577 11.8878 -92.4936
rradius 80.115
rwrist 8.33811
rhand -21.7326 17.6001
rfingers 7.12502
rthumb 4.66693 -12.3285
lclavicle -6.50026e-014 4.13472e-014
lhumerus -50.7635 -20.2211 91.3062
lradius 68.3094
lwrist 22.8698
lhand -10.9336 -9.8517
lfingers 7.12502
lthumb 15.0845 19.5787
rfemur 2.65685 -9.77751 17.95
rtibia 75.5869
rfoot 10.5758 3.68591
rtoes -32.7437
lfemur -24.3479 3.99849 -25.5456
ltibia 47.3827
lfoot -9.2928 -8.68639
ltoes 21.413
233
root 20.6986 16.2884 -7.17322 9.75241 119.591 -700.868
lowerback 7.61605 1.36101 1.69738
upperback 5.71447 2.18916 0.195458
thorax 1.69157 1.26448 -0.875637
lowerneck -10.9591 -1.38351 -4.23536
upperneck 3.60292 -1.46157 3.49132
head 3.19101 -0.63901 1.82143
rclavicle 3.93594e-014 3.65764e-014
rhumerus -43.7497 11.1628 -92.3366
rradius 77.9481
rwrist 8.58325
rhand -22.2517 18.0142
rfingers 7.12502
rthumb 4.16572 -11.9248
lclavicle 3.93594e-014 3.65764e-014
lhumerus -49.1566 -20.6473 91.4666
lradius 67.8292
lwrist 22.2899
lhand -10.9136 -9.47111
lfingers 7.12502
lthumb 15.1037 19.9578
rfemur 1.18646 -9.51044 17.5317
rtibia 77.8859
rfoot 10.3007 3.41398
rtoes -32.2411
lfemur -24.3411 3.61092 -25.9006
ltibia 49.7025
lfoot -10.0418 -9.16707
ltoes 23.5409
234
root 20.9258 16.1835 -7.22346 8.24625 120.259 -702.181
lowerback 7.9909 1.27766 1.11052
upperback 5.83959 2.06697 0.0326738
thorax 1.59679 1.19625 -0.716994
lowerneck -10.82 -1.383 -3.87571
upperneck 3.33198 -1.50263 3.42294
head 3.06521 -0.655206 1.72727
rclavicle 4.09496e-014 -1.59028e-014
rhumerus -43.8754 10.4934 -92.1885
rradius 75.831
rwrist 8.60785
rhand -22.6212 18.2077
rfingers 7.12502
rthumb 3.80888 -11.738
lclavicle 4.09496e-014 -1.59028e-014
lhumerus -47.5442 -21.1581 91.6157
lradius 67.5141
lwrist 21.6428
lhand -10.7946 -9.05842
lfingers 7.12502
lthumb 15.2184 20.3619
rfemur -0.383052 -9.11205 17.1597
rtibia 80.1258
rfoot 9.788 3.11203
rtoes -31.5191
lfemur -24.2598 3.29789 -26.3167
ltibia 51.842
lfoot -10.9432 -9.73141
ltoes 25.5598
235
root 21.1514 16.0869 -7.27778 6.68452 120.94 -703.599
lowerback 8.35192 1.20144 0.427794
upperback 5.94359 1.94314 -0.12917
thorax 1.48744 1.124 -0.50234
lowerneck -10.6796 -1.38363 -3.5823
upperneck 3.10074 -1.53911 3.40375
head 2.95516 -0.669029 1.66296
rclavicle -8.88567e-014 1.74931e-014
rhumerus -44.062 9.91443 -92.0036
rradius 73.7761
rwrist 8.45441
rhand -22.8188 18.0269
rfingers 7.12502
rthumb 3.61805 -11.9221
lclavicle -8.88567e-014 1.74931e-014
lhumerus -46.0258 -21.709 91.845
lradius 67.362
lwrist 20.9443
lhand -10.5924 -8.72048
lfingers 7.12502
lthumb 15.4131 20.6849
rfemur -1.97712 -8.59748 16.7581
rtibia 82.2467
rfoot 8.975 2.81355
rtoes -30.509
lfemur -24.0415 2.91294 -26.8264
ltibia 53.7611
lfoot -11.9953 -10.1869
ltoes 27.1143
236
root 21.374 15.9979 -7.33434 5.25507 121.683 -704.874
lowerback 8.70361 1.1009 -0.194778
upperback 6.06754 1.78886 -0.290026
thorax 1.40918 1.03967 -0.316165
lowerneck -10.5747 -1.37186 -3.31386
upperneck 2.86568 -1.55666 3.45663
head 2.85199 -0.670895 1.62884
rclavicle 3.91606e-014 -3.18055e-014
rhumerus -44.2069 9.44196 -91.8414
rradius 71.8119
rwrist 8.10533
rhand -22.742 17.4065
rfingers 7.12502
rthumb 3.69222 -12.5412
lclavicle 3.91606e-014 -3.18055e-014
lhumerus -44.4656 -22.3087 92.0662
lradius 67.3556
lwrist 20.3346
lhand -10.3074 -8.56817
lfingers 7.12502
lthumb 15.6876 20.8159
rfemur -3.56906 -8.14343 16.3823
rtibia 84.2419
rfoot 7.87073 2.52692
rtoes -29.5364
lfemur -23.674 2.40829 -27.2864
ltibia 55.4731
lfoot -13.144 -10.6382
ltoes 28.5893
237
root 21.5944 15.9102 -7.39313 3.93538 122.44 -706.044
lowerback 9.05482 0.994955 -0.780779
upperback 6.17946 1.62576 -0.443813
thorax 1.32312 0.951947 -0.141322
lowerneck -10.4569 -1.35011 -3.03584
upperneck 2.62611 -1.5607 3.50914
head 2.74463 -0.666536 1.59378
rclavicle 4.79071e-014 -3.18055e-015
rhumerus -44.3502 9.06972 -91.6839
rradius 69.8387
rwrist 7.65625
rhand -22.4805 16.4345
rfingers 7.12502
rthumb 3.94479 -13.5087
lclavicle 4.79071e-014 -3.18055e-015
lhumerus -42.9409 -22.9576 92.3309
lradius 67.5669
lwrist 19.8402
lhand -9.89653 -8.59098
lfingers 7.12502
lthumb 16.0833 20.7616
rfemur -5.20507 -7.74028 15.9532
rtibia 86.1147
rfoot 6.5709 2.27545
rtoes -28.3196
lfemur -23.202 1.88395 -27.7247
ltibia 56.9938
lfoot -14.3335 -11.1469
ltoes 29.8508
238
root 21.8112 15.833 -7.45583 2.95751 123.259 -706.808
lowerback 9.41344 0.85485 -1.15486
upperback 6.31252 1.43096 -0.535837
thorax 1.26159 0.854295 -0.0173641
lowerneck -10.462 -1.31345 -2.86985
upperneck 2.4455 -1.53248 3.66653
head 2.68333 -0.6427 1.61639
rclavicle -5.84427e-014 -1.27222e-014
rhumerus -44.5143 8.78544 -91.5186
rradius 67.9254
rwrist 7.12123
rhand -22.0821 15.3192
rfingers 7.12502
rthumb 4.32949 -14.6165
lclavicle -5.84427e-014 -1.27222e-014
lhumerus -41.4232 -23.6496 92.655
lradius 67.9776
lwrist 19.5586
lhand -9.46725 -8.78401
lfingers 7.12502
lthumb 16.4966 20.5347
rfemur -6.87173 -7.31918 15.7438
rtibia 87.7842
rfoot 5.22373 1.88935
rtoes -26.7982
lfemur -22.6089 1.32157 -27.9467
ltibia 58.3123
lfoot -15.5134 -11.6968
ltoes 30.8068
239
root 22.0261 15.7692 -7.52432 2.16414 124.1 -707.354
lowerback 9.76505 0.70725 -1.37088
upperback 6.43064 1.23491 -0.623639
thorax 1.1934 0.760318 0.0239624
lowerneck -10.4486 -1.28031 -2.67288
upperneck 2.31225 -1.51488 3.83468
head 2.63488 -0.62396 1.63662
rclavicle -9.95911e-014 1.90833e-014
rhumerus -44.6995 8.55635 -91.4017
rradius 65.9761
rwrist 6.64054
rhand -21.6682 14.1107
rfingers 7.12502
rthumb 4.7292 -15.8165
lclavicle -9.95911e-014 1.90833e-014
lhumerus -40.0156 -24.4502 93.0212
lradius 68.5727
lwrist 19.4503
lhand -8.99759 -9.20358
lfingers 7.12502
lthumb 16.9488 20.0769
rfemur -8.51132 -6.84102 15.6517
rtibia 89.2214
rfoot 3.79399 1.42667
rtoes -24.8332
lfemur -21.8541 0.779693 -28.0557
ltibia 59.3966
lfoot -16.6993 -12.2875
ltoes 31.4661
240
root 22.2392 15.723 -7.59846 1.52147 124.936 -707.742
lowerback 10.0832 0.545525 -1.51519
upperback 6.55807 1.02541 -0.669443
thorax 1.15483 0.66078 0.0718277
lowerneck -10.5004 -1.2507 -2.595
upperneck 2.22507 -1.48875 4.05323
head 2.61675 -0.599954 1.69607
rclavicle 1.09332e-014 3.02153e-014
rhumerus -44.8453 8.36565 -91.2398
rradius 63.9618
rwrist 6.29416
rhand -21.2855 13.1496
rfingers 7.12502
rthumb 5.09864 -16.769
lclavicle 1.09332e-014 3.02153e-014
lhumerus -38.6741 -25.2104 93.4842
lradius 69.3657
lwrist 19.4984
lhand -8.55717 -9.69815
lfingers 7.12502
lthumb 17.3727 19.5455
rfemur -10.141 -6.29572 15.679
rtibia 90.4019
rfoot 2.44891 1.00584
rtoes -23.2036
lfemur -20.9666 0.203151 -28.0879
ltibia 60.2216
lfoot -17.7705 -12.8433
ltoes 32.1074
241
root 22.4517 15.6919 -7.67579 0.927983 125.785 -708.076
lowerback 10.3935 0.384101 -1.66487
upperback 6.68432 0.815382 -0.687744
thorax 1.12014 0.560248 0.152674
lowerneck -10.4925 -1.221 -2.56628
upperneck 2.08242 -1.45556 4.2912
head 2.56953 -0.573083 1.77065
rclavicle -3.1408e-014 -1.59028e-015
rhumerus -44.992 8.25779 -91.0707
rradius 61.9262
rwrist 5.99668
rhand -21.0109 12.4263
rfingers 7.12502
rthumb 5.36383 -17.4858
lclavicle -3.1408e-014 -1.59028e-015
lhumerus -37.4049 -25.9655 94.0301
lradius 70.3424
lwrist 19.5845
lhand -8.05147 -10.1252
lfingers 7.12502
lthumb 17.8593 19.0748
rfemur -11.733 -5.78593 15.761
rtibia 91.3494
rfoot 1.06295 0.569074
rtoes -21.8833
lfemur -19.9316 -0.397653 -28.0952
ltibia 60.7812
lfoot -18.7651 -13.3517
ltoes 32.6003
242
root 22.6624 15.6733 -7.75567 0.456618 126.642 -708.299
lowerback 10.6955 0.206181 -1.75242
upperback 6.78238 0.584898 -0.686694
thorax 1.06221 0.44996 0.221854
lowerneck -10.5088 -1.17781 -2.60712
upperneck 2.01999 -1.40027 4.57346
head 2.55497 -0.534301 1.87469
rclavicle 4.41302e-014 -1.27222e-014
rhumerus -45.1143 8.20558 -90.8994
rradius 59.8107
rwrist 5.91331
rhand -20.9431 12.0321
rfingers 7.12502
rthumb 5.4293 -17.8784
lclavicle 4.41302e-014 -1.27222e-014
lhumerus -36.2568 -26.7879 94.6132
lradius 71.4773
lwrist 19.7829
lhand -7.59779 -10.4581
lfingers 7.12502
lthumb 18.2958 18.7015
rfemur -13.3647 -5.35068 15.9079
rtibia 92.0999
rfoot -0.220285 0.117208
rtoes -20.4441
lfemur -18.8183 -0.961388 -28.0384
ltibia 61.099
lfoot -19.6266 -13.8467
ltoes 32.8027
243
root 22.8727 15.6713 -7.83961 0.102235 127.479 -708.39
lowerback 10.984 0.0432318 -1.78354
upperback 6.86492 0.377105 -0.641736
thorax 0.995747 0.351186 0.30411
lowerneck -10.4918 -1.17024 -2.69102
upperneck 1.94797 -1.38555 4.81223
head 2.53242 -0.518547 1.9698
rclavicle 1.66979e-014 -4.77083e-015
rhumerus -45.2082 8.11569 -90.685
rradius 57.6967
rwrist 5.96506
rhand -21.0305 11.8557
rfingers 7.12502
rthumb 5.34493 -18.0568
lclavicle 1.66979e-014 -4.77083e-015
lhumerus -35.175 -27.7342 95.2723
lradius 72.6773
lwrist 20.0153
lhand -7.19907 -10.6866
lfingers 7.12502
lthumb 18.6794 18.4366
rfemur -14.9802 -4.90367 16.1278
rtibia 92.6309
rfoot -1.47175 -0.618009
rtoes -19.3037
lfemur -17.6089 -1.43763 -27.8828
ltibia 61.1959
lfoot -20.362 -14.3318
ltoes 33.0101
